<?xml version="1.0" standalone="no"?>
<!DOCTYPE svg PUBLIC "-//W3C//DTD SVG 20010904//EN"
 "http://www.w3.org/TR/2001/REC-SVG-20010904/DTD/svg10.dtd">
<svg version="1.0" xmlns="http://www.w3.org/2000/svg"
 width="16.000000pt" height="16.000000pt" viewBox="0 0 16.000000 16.000000"
 preserveAspectRatio="xMidYMid meet">
<metadata>
Created by potrace 1.11, written by Peter Selinger 2001-2013
</metadata>
<g transform="translate(0.000000,16.000000) scale(0.002286,-0.002286)"
fill="#000000" stroke="none">
<path d="M1998 6165 c-2 -2 -30 -6 -63 -10 -101 -11 -126 -15 -235 -41 -341
-79 -652 -253 -914 -510 -183 -178 -355 -447 -446 -695 -75 -206 -110 -396
-115 -629 -5 -243 14 -385 81 -610 100 -331 322 -670 589 -896 33 -28 164
-127 290 -219 261 -191 418 -307 425 -315 3 -3 28 -21 55 -39 28 -19 52 -38
55 -41 3 -3 190 -143 415 -310 226 -168 417 -310 425 -317 8 -7 170 -128 360
-269 400 -298 550 -410 567 -424 8 -7 87 46 268 178 141 103 266 194 278 202
23 15 412 299 542 395 39 29 196 144 350 255 154 112 321 233 370 270 50 36
119 87 155 113 36 25 70 50 75 54 6 5 26 20 45 33 19 13 40 28 45 33 6 4 112
82 237 173 296 215 452 371 603 599 58 89 149 257 175 325 7 19 21 53 31 76
19 43 74 236 84 294 28 160 34 239 30 400 -2 96 -5 182 -8 190 -2 8 -7 38 -11
65 -4 28 -9 59 -11 70 -16 107 -93 329 -162 470 -96 196 -254 414 -393 541
-14 13 -43 40 -65 60 -97 89 -294 223 -420 287 -202 100 -461 173 -695 194
-121 11 -327 5 -410 -12 -14 -3 -45 -8 -70 -11 -64 -9 -70 -10 -174 -38 -170
-47 -332 -116 -480 -205 -123 -74 -209 -140 -328 -249 l-26 -24 -75 71 c-281
270 -662 452 -1057 507 -46 6 -386 14 -392 9z"/>
</g>
</svg>
